<?xml version="1.0" encoding="UTF-8"?>
<svg id="Layer_1" data-name="Layer 1" xmlns="http://www.w3.org/2000/svg" xmlns:xlink="http://www.w3.org/1999/xlink" viewBox="0 0 1000 1000">
  <defs>
    <style>
      .cls-1, .cls-2 {
        fill: none;
      }

      .cls-3 {
        fill: url(#linear-gradient-7);
      }

      .cls-4 {
        fill: url(#linear-gradient-5);
      }

      .cls-5 {
        fill: url(#linear-gradient-6);
      }

      .cls-6 {
        fill: url(#linear-gradient-4);
      }

      .cls-7 {
        fill: url(#linear-gradient-3);
      }

      .cls-8 {
        fill: url(#linear-gradient-2);
      }

      .cls-9 {
        fill: url(#linear-gradient);
      }

      .cls-10 {
        clip-path: url(#clippath-1);
      }

      .cls-11 {
        clip-path: url(#clippath-3);
      }

      .cls-12 {
        clip-path: url(#clippath-4);
      }

      .cls-13 {
        clip-path: url(#clippath-2);
      }

      .cls-14 {
        clip-path: url(#clippath-6);
      }

      .cls-15 {
        clip-path: url(#clippath-5);
      }

      .cls-16 {
        fill: #9b2061;
      }

      .cls-17 {
        fill: #28051b;
      }

      .cls-2 {
        clip-rule: evenodd;
      }

      .cls-18 {
        clip-path: url(#clippath);
      }
    </style>
    <clipPath id="clippath">
      <path class="cls-2" d="M637.3,580.42c85.04,8.39,216.14,43.78,236.1,47.93v-1.91s3.38-25.7-34.55-52.11h2.23s-.77-5.79-2.91-15.69c-18.85-1.95-37.82-4.61-56.89-7.89-47.48,6.4-95.7,17.02-143.98,29.67Z"/>
    </clipPath>
    <linearGradient id="linear-gradient" x1="934.94" y1="589.54" x2="1167.86" y2="589.54" gradientTransform="translate(-297.64)" gradientUnits="userSpaceOnUse">
      <stop offset="0" stop-color="#f27721"/>
      <stop offset="1" stop-color="#f8c517"/>
    </linearGradient>
    <clipPath id="clippath-1">
      <path class="cls-1" d="M527.9,358.22c-.15.05-.31.1-.47.15-66.22,20.15-133.7,40.59-200.56,55.42-18.03,3.99-36.02,7.59-53.92,10.65-2.97,4.47-5.79,8.95-8.48,13.4,75.16,2.09,154.41,18.33,233.96,39.14,9.51-2.49,19.04-5.04,28.55-7.65.14-.04.29-.09.44-.13,66.21-20.14,133.71-40.59,200.56-55.42,13.45-2.99,26.87-5.71,40.25-8.19-23.01-30.16-53.02-59.14-92.07-81.8-48.87,8.59-98.59,20.84-148.27,34.43Z"/>
    </clipPath>
    <linearGradient id="linear-gradient-2" x1="562.11" y1="400.39" x2="1065.87" y2="400.39" xlink:href="#linear-gradient"/>
    <clipPath id="clippath-2">
      <path class="cls-1" d="M566.32,164.57c0,20.2-16.42,36.56-36.7,36.56s-36.68-16.37-36.68-36.56c0-10.77,4.65-20.45,12.08-27.14-13.51,8.26-22.51,23.1-22.51,40.05,0,21.96,15.14,40.34,35.58,45.47-3.18,1.86-5.85,4.48-7.78,7.59,5.56-.57,11.12-1.14,16.67-1.7,6.06-.79,12.11-1.62,18.16-2.45-1.3-1.28-2.75-2.41-4.33-3.36,20.61-5.01,35.92-23.48,35.92-45.56,0-16.95-9.01-31.79-22.53-40.05,7.44,6.69,12.1,16.36,12.1,27.14Z"/>
    </clipPath>
    <linearGradient id="linear-gradient-3" x1="780.15" y1="183.99" x2="874.38" y2="183.99" xlink:href="#linear-gradient"/>
    <clipPath id="clippath-3">
      <path class="cls-1" d="M228.36,515.99c-.79,2.32-1.54,4.59-2.25,6.81,45.49,5.28,91.75,14.64,138.14,26.21,43.9-11.79,87.78-25.1,131.12-38.3,21.14-5.78,42.3-11.32,63.39-16.44-10.63-3.21-21.22-6.43-31.79-9.65-9.51-2.6-19.02-5.15-28.53-7.64-79.55-20.82-158.79-37.05-233.96-39.14-16.85,27.94-28.36,55.32-36.11,78.14Z"/>
    </clipPath>
    <linearGradient id="linear-gradient-4" x1="592.15" y1="590.98" x2="772.79" y2="411.01" gradientTransform="translate(-297.64)" gradientUnits="userSpaceOnUse">
      <stop offset="0" stop-color="#f27722"/>
      <stop offset=".24" stop-color="#f6932d"/>
      <stop offset="1" stop-color="#f9ae3b"/>
    </linearGradient>
    <clipPath id="clippath-4">
      <path class="cls-1" d="M507.18,245.1c.94,6.97,5.13,12.87,10.98,16.27-8.62,3.73-14.99,11.61-16.61,21.1-48.68,6.78-89.25,21.67-123.07,41.3-31.43,18.24-57.03,40.58-77.82,64.34,67.37-2.82,137.87-16.62,208.83-34.59,15-3.8,30.02-7.78,45.02-11.88,32.89-10.02,66.11-20.08,99.4-29.52-27.93-13.3-59.92-23.46-96.58-28.99-1.44-9.78-7.9-17.94-16.73-21.75,6.66-3.87,11.19-10.98,11.19-19.22,0-3.54-.88-6.85-2.36-9.81-14.03,4.27-28.12,8.55-42.24,12.77Z"/>
    </clipPath>
    <linearGradient id="linear-gradient-5" x1="598.3" y1="310.22" x2="951.54" y2="310.22" gradientTransform="translate(-297.64)" gradientUnits="userSpaceOnUse">
      <stop offset="0" stop-color="#c5198a"/>
      <stop offset=".35" stop-color="#c5198a"/>
      <stop offset=".59" stop-color="#af2074"/>
      <stop offset=".85" stop-color="#9b2061"/>
      <stop offset="1" stop-color="#9b2061"/>
    </linearGradient>
    <clipPath id="clippath-5">
      <path class="cls-1" d="M774.51,463.71h-.49c-58.2,0-119.04,9.03-180.74,22.57-11.49,2.52-23,5.19-34.54,8-21.09,5.12-42.24,10.65-63.39,16.44-43.33,13.19-87.22,26.5-131.12,38.3-20.1,5.39-40.19,10.46-60.24,15.06,35.89,3.15,72.53,9.07,109.53,16.74,15.95-1.64,32.99-3,51.19-4.07,19.52-1.15,40.32-1.95,62.59-2.34,41.4.71,77.84,2.86,109.99,6.02,48.27-12.65,96.5-23.27,143.98-29.67,18.04-2.43,35.97-4.25,53.75-5.34-2.17-8.44-5.03-18.38-8.77-29.4-5.25-15.46-12.23-33.01-21.43-51.41-10.02-.59-20.13-.87-30.32-.88"/>
    </clipPath>
    <linearGradient id="linear-gradient-6" x1="601.64" y1="522.26" x2="1132.67" y2="522.26" xlink:href="#linear-gradient-5"/>
    <clipPath id="clippath-6">
      <path class="cls-1" d="M26.29,629.14c141.43-48.87,312.12-10.25,473.73,26.74,175.62,36.22,352.26,57.97,473.7-41.72-141.41,48.86-312.12,10.23-473.7-26.75-81.17-16.74-162.55-30.39-238.59-30.39-88.52,0-169.81,18.49-235.13,72.13Z"/>
    </clipPath>
    <linearGradient id="linear-gradient-7" x1="323.92" y1="635.43" x2="1271.35" y2="635.43" xlink:href="#linear-gradient-5"/>
  </defs>
  <g>
    <path class="cls-16" d="M519.06,631.48c3.04-13.38-2.83-27.88-21.2-31.47-20.41-3.98-37.63-14.43-54.59-25.42,159.93-28.43,312.71-30.03,430.13,52.61-109.51-30.34-231.08-20.19-354.34,4.27"/>
    <g class="cls-18">
      <rect class="cls-9" x="637.3" y="550.74" width="239.47" height="77.6"/>
    </g>
    <path class="cls-16" d="M804.83,464.59c-6.55-13.12-14.22-26.67-23.2-40.2-17.8-3.06-35.7-6.64-53.64-10.61-66.86,14.83-134.35,35.27-200.56,55.42.15.05.3.1.45.14,21.82,5.97,43.65,11.67,65.42,16.93,72.68-15.94,144.18-25.64,211.55-21.68"/>
    <g class="cls-10">
      <rect class="cls-8" x="264.47" y="323.79" width="503.76" height="153.2"/>
    </g>
    <path class="cls-16" d="M527.42,358.37c-.16-.05-.31-.09-.47-.15-5.83-1.59-11.65-3.16-17.46-4.71-70.96,17.97-141.46,31.77-208.83,34.59-5.03,5.74-9.78,11.57-14.26,17.45,13.46,2.49,26.95,5.23,40.47,8.23,66.86-14.83,134.34-35.26,200.56-55.42"/>
    <g class="cls-13">
      <rect class="cls-7" x="482.51" y="137.43" width="94.23" height="93.12"/>
    </g>
    <g class="cls-11">
      <rect class="cls-6" x="226.11" y="437.84" width="332.64" height="111.16"/>
    </g>
    <g class="cls-12">
      <rect class="cls-4" x="300.66" y="232.33" width="353.24" height="155.77"/>
    </g>
    <g class="cls-15">
      <rect class="cls-5" x="304" y="463.71" width="531.03" height="117.09"/>
    </g>
    <g class="cls-14">
      <rect class="cls-3" x="26.29" y="557.01" width="947.43" height="156.84"/>
    </g>
  </g>
  <path class="cls-17" d="M971.81,741.31h-18.56v-18.9h18.56v18.9ZM972.15,803.47c0,20.61-9.54,30.82-28.61,30.82h-20.09v-19.41h16.18c6.3,0,10.22-1.87,12.09-5.62.85-2.04,1.37-6.13,1.37-12.26v-40.02h19.07v46.49ZM756.55,834.3v-19.41h17.37c9.71,0,14.47-6.64,14.47-20.1v-37.81h19.25v37.13c0,10.05-1.02,16.52-3.07,19.75v1.02h17.71c9.71,0,14.48-6.3,14.48-18.9v-39h19.25v37.13c0,11.07-1.36,18.05-3.92,20.78h18.56c9.71,0,14.48-6.3,14.48-18.73v-39.17h19.24v36.78c0,8-1.37,14.99-4.26,21.12h29.12v19.41h-172.69ZM763.71,834.3h-22.31c-9.2,0-16.18-2.89-21.12-8.86-4.6-5.45-6.81-12.77-6.81-22.14v-78.85h18.9v71.18c0,8.35,1.88,13.8,5.45,16.35,2.55,1.87,7.49,2.89,14.64,2.89h11.25v19.41ZM695.76,834.3h-72.21v-19.41h15.5c-1.87-4.43-2.9-9.19-2.9-14.3,0-9.03,2.9-16.86,8.69-23.16,5.96-6.3,13.46-9.54,22.48-9.54,11.75,0,21.8,6.47,26.57,17.37l-13.63,9.37c-1.87-6.13-5.96-9.2-12.09-9.2-4.26,0-7.66,1.7-10.04,5.28-2.05,2.89-3.07,6.64-3.07,11.24,0,5.45,1.36,9.71,4.26,12.94h36.44v19.41ZM566.67,834.3h-18.9v-110.01h18.9v110.01ZM478.46,728.37h-29.46v-7.83h6.81c-1.02-3.24-1.53-5.11-1.53-5.96,0-8,5.96-13.79,13.29-13.79,4.76,0,8.34,2.55,10.72,7.49l-6.13,3.24c-.51-2.56-2.21-3.75-4.77-3.75-3.57,0-5.79,3.24-5.79,6.47,0,2.9,1.02,5.11,3.06,6.3h13.8v7.83ZM529.89,724.46v83.11c0,16.18-11.58,26.74-29.97,26.74h-50.92v-19.41h26.06l-21.46-78.34h20.09l21.29,78.34c5.28,0,9.03-1.19,11.58-3.75,3.24-3.24,4.77-8.68,4.77-16.35v-70.33h18.56ZM411.87,795.13c0-12.94-7.83-22.48-19.24-22.48s-18.22,8.51-18.22,21.8c0,12.26,7.83,22.31,19.25,22.31s18.22-9.02,18.22-21.63ZM431.46,795.13c0,22.48-15.33,39.17-38.14,39.17h-60.63v-19.41h27.08c-3.23-6.13-4.94-12.94-4.94-20.26,0-23.16,15.84-39.34,38.49-39.34s38.14,17.54,38.14,39.85ZM386.33,740.8h-18.56v-18.9h18.56v18.9ZM418.69,740.8h-18.57v-18.9h18.57v18.9ZM296.75,814.88l.34-5.45c0-21.97-10.22-35.76-26.4-35.76-19.07,0-39.34,17.71-49.9,41.21h75.96ZM336.6,834.3h-168.94v-19.41h19.08c9.7,0,14.47-6.64,14.47-20.1v-29.63h19.07v23.67c15.16-20.61,33.89-32.19,52.28-32.19,28.78,0,43.43,19.58,43.94,58.24h20.1v19.41ZM177.2,814.88v19.41c-20.95,0-26.91-3.24-34.74-14.99-5.45,26.57-28.27,43.26-56.03,43.26-32.7,0-58.58-25.55-58.58-59.09v-19.07h19.07v16.86c0,26.4,15.33,42.92,40.02,42.92,22.14,0,38.83-14.64,38.83-32.01,0-10.56-6.3-18.05-17.2-18.05-1.02,0-2.05,0-3.06.17v-17.37h7.49c14.99,0,26.23,6.81,33.72,20.26,6.99,12.77,13.63,17.71,23.33,17.71h7.15Z"/>
</svg>