<?xml version="1.0" encoding="UTF-8"?>
<svg id="Layer_1" data-name="Layer 1" xmlns="http://www.w3.org/2000/svg" xmlns:xlink="http://www.w3.org/1999/xlink" viewBox="0 0 1000 1000">
  <defs>
    <style>
      .cls-1, .cls-2 {
        fill: none;
      }

      .cls-3 {
        fill: url(#linear-gradient-7);
      }

      .cls-4 {
        fill: url(#linear-gradient-5);
      }

      .cls-5 {
        fill: url(#linear-gradient-6);
      }

      .cls-6 {
        fill: url(#linear-gradient-4);
      }

      .cls-7 {
        fill: url(#linear-gradient-3);
      }

      .cls-8 {
        fill: url(#linear-gradient-2);
      }

      .cls-9 {
        fill: url(#linear-gradient);
      }

      .cls-10 {
        clip-path: url(#clippath-1);
      }

      .cls-11 {
        clip-path: url(#clippath-3);
      }

      .cls-12 {
        clip-path: url(#clippath-4);
      }

      .cls-13 {
        clip-path: url(#clippath-2);
      }

      .cls-14 {
        clip-path: url(#clippath-6);
      }

      .cls-15 {
        clip-path: url(#clippath-5);
      }

      .cls-16 {
        fill: #9b2061;
      }

      .cls-17 {
        fill: #28051b;
      }

      .cls-2 {
        clip-rule: evenodd;
      }

      .cls-18 {
        clip-path: url(#clippath);
      }
    </style>
    <clipPath id="clippath">
      <path class="cls-2" d="M637.3,591.73c85.04,8.39,216.14,43.78,236.1,47.93v-1.91s3.38-25.7-34.55-52.11h2.23s-.77-5.79-2.91-15.69c-18.85-1.95-37.82-4.61-56.89-7.89-47.48,6.4-95.7,17.02-143.98,29.67Z"/>
    </clipPath>
    <linearGradient id="linear-gradient" x1="934.94" y1="600.86" x2="1167.86" y2="600.86" gradientTransform="translate(-297.64)" gradientUnits="userSpaceOnUse">
      <stop offset="0" stop-color="#f27721"/>
      <stop offset="1" stop-color="#f8c517"/>
    </linearGradient>
    <clipPath id="clippath-1">
      <path class="cls-1" d="M527.9,369.53c-.15.05-.31.1-.47.15-66.22,20.15-133.7,40.59-200.56,55.42-18.03,3.99-36.02,7.59-53.92,10.65-2.97,4.47-5.79,8.95-8.48,13.4,75.16,2.09,154.41,18.33,233.96,39.14,9.51-2.49,19.04-5.04,28.55-7.65.14-.04.29-.09.44-.13,66.21-20.14,133.71-40.59,200.56-55.42,13.45-2.99,26.87-5.71,40.25-8.19-23.01-30.16-53.02-59.14-92.07-81.8-48.87,8.59-98.59,20.84-148.27,34.43Z"/>
    </clipPath>
    <linearGradient id="linear-gradient-2" x1="562.11" y1="411.7" x2="1065.87" y2="411.7" xlink:href="#linear-gradient"/>
    <clipPath id="clippath-2">
      <path class="cls-1" d="M566.32,175.88c0,20.2-16.42,36.56-36.7,36.56s-36.68-16.37-36.68-36.56c0-10.77,4.65-20.45,12.08-27.14-13.51,8.26-22.51,23.1-22.51,40.05,0,21.96,15.14,40.34,35.58,45.47-3.18,1.86-5.85,4.48-7.78,7.59,5.56-.57,11.12-1.14,16.67-1.7,6.06-.79,12.11-1.62,18.16-2.45-1.3-1.28-2.75-2.41-4.33-3.36,20.61-5.01,35.92-23.48,35.92-45.56,0-16.95-9.01-31.79-22.53-40.05,7.44,6.69,12.1,16.36,12.1,27.14Z"/>
    </clipPath>
    <linearGradient id="linear-gradient-3" x1="780.15" y1="195.3" x2="874.38" y2="195.3" xlink:href="#linear-gradient"/>
    <clipPath id="clippath-3">
      <path class="cls-1" d="M228.36,527.3c-.79,2.32-1.54,4.59-2.25,6.81,45.49,5.28,91.75,14.64,138.14,26.21,43.9-11.79,87.78-25.1,131.12-38.3,21.14-5.78,42.3-11.32,63.39-16.44-10.63-3.21-21.22-6.43-31.79-9.65-9.51-2.6-19.02-5.15-28.53-7.64-79.55-20.82-158.79-37.05-233.96-39.14-16.85,27.94-28.36,55.32-36.11,78.14Z"/>
    </clipPath>
    <linearGradient id="linear-gradient-4" x1="592.15" y1="602.29" x2="772.79" y2="422.32" gradientTransform="translate(-297.64)" gradientUnits="userSpaceOnUse">
      <stop offset="0" stop-color="#f27722"/>
      <stop offset=".24" stop-color="#f6932d"/>
      <stop offset="1" stop-color="#f9ae3b"/>
    </linearGradient>
    <clipPath id="clippath-4">
      <path class="cls-1" d="M507.18,256.41c.94,6.97,5.13,12.87,10.98,16.27-8.62,3.73-14.99,11.61-16.61,21.1-48.68,6.78-89.25,21.67-123.07,41.3-31.43,18.24-57.03,40.58-77.82,64.34,67.37-2.82,137.87-16.62,208.83-34.59,15-3.8,30.02-7.78,45.02-11.88,32.89-10.02,66.11-20.08,99.4-29.52-27.93-13.3-59.92-23.46-96.58-28.99-1.44-9.78-7.9-17.94-16.73-21.75,6.66-3.87,11.19-10.98,11.19-19.22,0-3.54-.88-6.85-2.36-9.81-14.03,4.27-28.12,8.55-42.24,12.77Z"/>
    </clipPath>
    <linearGradient id="linear-gradient-5" x1="598.3" y1="321.53" x2="951.54" y2="321.53" gradientTransform="translate(-297.64)" gradientUnits="userSpaceOnUse">
      <stop offset="0" stop-color="#c5198a"/>
      <stop offset=".35" stop-color="#c5198a"/>
      <stop offset=".59" stop-color="#af2074"/>
      <stop offset=".85" stop-color="#9b2061"/>
      <stop offset="1" stop-color="#9b2061"/>
    </linearGradient>
    <clipPath id="clippath-5">
      <path class="cls-1" d="M774.51,475.02h-.49c-58.2,0-119.04,9.03-180.74,22.57-11.49,2.52-23,5.19-34.54,8-21.09,5.12-42.24,10.65-63.39,16.44-43.33,13.19-87.22,26.5-131.12,38.3-20.1,5.39-40.19,10.46-60.24,15.06,35.89,3.15,72.53,9.07,109.53,16.74,15.95-1.64,32.99-3,51.19-4.07,19.52-1.15,40.32-1.95,62.59-2.34,41.4.71,77.84,2.86,109.99,6.02,48.27-12.65,96.5-23.27,143.98-29.67,18.04-2.43,35.97-4.25,53.75-5.34-2.17-8.44-5.03-18.38-8.77-29.4-5.25-15.46-12.23-33.01-21.43-51.41-10.02-.59-20.13-.87-30.32-.88"/>
    </clipPath>
    <linearGradient id="linear-gradient-6" x1="601.64" y1="533.57" x2="1132.67" y2="533.57" xlink:href="#linear-gradient-5"/>
    <clipPath id="clippath-6">
      <path class="cls-1" d="M26.29,640.45c141.43-48.87,312.12-10.25,473.73,26.74,175.62,36.22,352.26,57.97,473.7-41.72-141.41,48.86-312.12,10.23-473.7-26.75-81.17-16.74-162.55-30.39-238.59-30.39-88.52,0-169.81,18.49-235.13,72.13Z"/>
    </clipPath>
    <linearGradient id="linear-gradient-7" x1="323.92" y1="646.74" x2="1271.35" y2="646.74" xlink:href="#linear-gradient-5"/>
  </defs>
  <g>
    <path class="cls-16" d="M519.06,642.8c3.04-13.38-2.83-27.88-21.2-31.47-20.41-3.98-37.63-14.43-54.59-25.42,159.93-28.43,312.71-30.03,430.13,52.61-109.51-30.34-231.08-20.19-354.34,4.27"/>
    <g class="cls-18">
      <rect class="cls-9" x="637.3" y="562.05" width="239.47" height="77.6"/>
    </g>
    <path class="cls-16" d="M804.83,475.91c-6.55-13.12-14.22-26.67-23.2-40.2-17.8-3.06-35.7-6.64-53.64-10.61-66.86,14.83-134.35,35.27-200.56,55.42.15.05.3.1.45.14,21.82,5.97,43.65,11.67,65.42,16.93,72.68-15.94,144.18-25.64,211.55-21.68"/>
    <g class="cls-10">
      <rect class="cls-8" x="264.47" y="335.11" width="503.76" height="153.2"/>
    </g>
    <path class="cls-16" d="M527.42,369.68c-.16-.05-.31-.09-.47-.15-5.83-1.59-11.65-3.16-17.46-4.71-70.96,17.97-141.46,31.77-208.83,34.59-5.03,5.74-9.78,11.57-14.26,17.45,13.46,2.49,26.95,5.23,40.47,8.23,66.86-14.83,134.34-35.26,200.56-55.42"/>
    <g class="cls-13">
      <rect class="cls-7" x="482.51" y="148.74" width="94.23" height="93.12"/>
    </g>
    <g class="cls-11">
      <rect class="cls-6" x="226.11" y="449.16" width="332.64" height="111.16"/>
    </g>
    <g class="cls-12">
      <rect class="cls-4" x="300.66" y="243.64" width="353.24" height="155.77"/>
    </g>
    <g class="cls-15">
      <rect class="cls-5" x="304" y="475.02" width="531.03" height="117.09"/>
    </g>
    <g class="cls-14">
      <rect class="cls-3" x="26.29" y="568.32" width="947.43" height="156.84"/>
    </g>
  </g>
  <g>
    <path class="cls-17" d="M90.57,745.77c-3.69-3.79-8.78-5.69-15.29-5.69s-11.42,1.9-15.04,5.69c-3.61,3.79-6.66,10.27-9.15,19.42l-20.89,76.88c-.67,2.38-.55,4.27.36,5.65.91,1.38,2.44,2.07,4.6,2.07h3.88c3.59,0,5.86-1.9,6.82-5.69l6.67-24.62h45.65l6.6,24.62c.95,3.79,3.2,5.69,6.75,5.69h3.95c2.15,0,3.68-.69,4.59-2.07.91-1.38,1.05-3.26.43-5.65l-20.96-76.88c-2.3-9.15-5.29-15.63-8.97-19.42ZM56.98,802.89l9.62-35.51c1.15-4.23,2.34-7.11,3.59-8.66,1.24-1.54,2.94-2.32,5.1-2.32s3.86.77,5.13,2.32c1.27,1.55,2.48,4.43,3.62,8.66l9.62,35.51h-36.67Z"/>
    <path class="cls-17" d="M167.15,805.82l30.58-30.07c1.87-1.84,2.23-3.52,1.11-5.04-1.12-1.52-3.27-2.28-6.42-2.28h-1.22c-4.5-.05-7.66.87-9.47,2.76l-32.08,31.61v-62.74c0-4.55-2.01-6.83-6.03-6.83h-3.45c-4.02,0-6.03,2.28-6.03,6.83v102.88c0,4.55,2.01,6.83,6.03,6.83h3.45c4.02,0,6.03-2.28,6.03-6.83v-33.73l32.3,37.3c1.87,2.17,5,3.25,9.4,3.25h1.94c3.11,0,5.23-.74,6.35-2.24,1.12-1.49.87-3.21-.75-5.16l-31.72-36.57Z"/>
    <path class="cls-17" d="M252.49,801.76l-17.73-5.12c-4.11-1.25-6.17-3.5-6.17-6.75,0-2.17,1-3.85,3.01-5.04,2.01-1.19,4.63-1.87,7.86-2.03,3.23-.16,6.74-.03,10.52.41,3.78.43,7.61,1.17,11.48,2.19,2.15.65,3.83.46,5.02-.57,1.2-1.03,1.79-2.74,1.79-5.12v-1.95c0-4.06-1.72-6.61-5.17-7.64-6.27-1.9-12.37-2.95-18.3-3.17-5.93-.22-11.27.41-16.01,1.87-4.74,1.46-8.54,4.02-11.41,7.68s-4.31,8.19-4.31,13.61c0,11.32,6.36,18.85,19.09,22.59l16.29,4.88c3.06.92,5.29,2.05,6.68,3.37s2.08,3.1,2.08,5.32c0,2.65-1.02,4.73-3.05,6.22-2.03,1.49-4.84,2.32-8.43,2.48-3.59.16-7.45.01-11.59-.45-4.14-.46-8.67-1.29-13.6-2.48-2.15-.49-3.82-.22-4.99.81-1.17,1.03-1.76,2.73-1.76,5.12v2.03c0,4.06,1.67,6.64,5.03,7.72,6.36,2.06,12.7,3.21,19.02,3.45,6.32.24,12.08-.42,17.3-1.99,5.21-1.57,9.44-4.37,12.67-8.41s4.85-9.09,4.85-15.16-1.65-11.2-4.95-15.07c-3.3-3.87-8.37-6.81-15.22-8.82Z"/>
    <path class="cls-17" d="M317.37,766.89c-6.65,0-13.95,1-21.89,3.01-4.16,1.14-6.24,3.77-6.24,7.88v2.19c0,2.38.6,4.09,1.79,5.12,1.2,1.03,2.85,1.3,4.95.81,7.7-1.79,14.23-2.68,19.59-2.68,12.63,0,18.95,4.93,18.95,14.79v2.19h-22.03c-9.09,0-15.94,1.84-20.56,5.53-4.62,3.68-6.92,10.1-6.92,19.26s2.31,15.51,6.92,19.22c4.62,3.71,11.47,5.57,20.56,5.57h15.36c7.94,0,13.64-1.86,17.08-5.57,3.44-3.71,5.17-9.74,5.17-18.08v-28.12c0-10.35-2.97-18.12-8.9-23.32-5.93-5.2-13.88-7.8-23.83-7.8ZM334.53,825.24c0,3.14-.56,5.46-1.69,6.95-1.13,1.49-3.39,2.23-6.78,2.23h-13.49c-4.83,0-8.09-.69-9.76-2.07-1.68-1.38-2.51-3.83-2.51-7.36s.83-6.04,2.48-7.39c1.65-1.35,4.92-2.03,9.8-2.03h21.96v9.67Z"/>
    <path class="cls-17" d="M437.59,795.34l38.26-46.32c1.58-1.95,1.77-3.67.57-5.16-1.2-1.49-3.3-2.24-6.32-2.24h-2.37c-4.55,0-7.68,1.09-9.4,3.25l-36.6,45.26v-41.69c0-4.55-2.01-6.83-6.03-6.83h-3.8c-4.02,0-6.03,2.28-6.03,6.83v94.51c0,4.55,2.01,6.83,6.03,6.83h3.8c4.02,0,6.03-2.28,6.03-6.83v-42.26l36.6,45.67c1.67,2.28,4.81,3.41,9.4,3.41h2.51c3.02,0,5.11-.74,6.28-2.24,1.17-1.49.99-3.21-.54-5.16l-38.4-47.05Z"/>
    <path class="cls-17" d="M521.85,766.89c-6.65,0-13.95,1-21.89,3.01-4.16,1.14-6.24,3.77-6.24,7.88v2.19c0,2.38.6,4.09,1.79,5.12,1.2,1.03,2.85,1.3,4.95.81,7.7-1.79,14.24-2.68,19.59-2.68,12.63,0,18.95,4.93,18.95,14.79v2.19h-22.03c-9.09,0-15.95,1.84-20.56,5.53-4.62,3.68-6.93,10.1-6.93,19.26s2.31,15.51,6.93,19.22c4.62,3.71,11.47,5.57,20.56,5.57h15.36c7.94,0,13.64-1.86,17.08-5.57,3.44-3.71,5.17-9.74,5.17-18.08v-28.12c0-10.35-2.97-18.12-8.9-23.32-5.94-5.2-13.88-7.8-23.83-7.8ZM539.01,825.24c0,3.14-.57,5.46-1.69,6.95-1.12,1.49-3.38,2.23-6.78,2.23h-13.5c-4.83,0-8.09-.69-9.76-2.07-1.67-1.38-2.51-3.83-2.51-7.36s.83-6.04,2.48-7.39c1.65-1.35,4.92-2.03,9.8-2.03h21.96v9.67Z"/>
    <path class="cls-17" d="M632.81,733.25h-3.44c-4.02,0-6.03,2.28-6.03,6.83v27.63c-4.45-.54-8.85-.81-13.2-.81-13.11,0-22.99,3.24-29.64,9.71-6.65,6.47-9.98,17.27-9.98,32.38s3.32,25.87,9.98,32.42c6.65,6.56,16.53,9.83,29.64,9.83,10.38,0,17.76-1.98,22.14-5.93,4.38-3.95,6.57-10.32,6.57-19.1v-86.14c0-4.55-2.01-6.83-6.03-6.83ZM623.34,823.86c0,1.95-.16,3.52-.47,4.71-.31,1.19-.95,2.33-1.9,3.41-.96,1.08-2.39,1.87-4.31,2.36-1.92.49-4.43.73-7.54.73-8.13,0-14.02-1.96-17.66-5.89-3.64-3.93-5.45-10.66-5.45-20.2s1.81-16.43,5.42-20.19c3.61-3.76,9.51-5.65,17.69-5.65,3.97,0,8.71.38,14.21,1.14v39.58Z"/>
    <path class="cls-17" d="M668.41,768.44h-3.8c-4.02-.05-6.03,2.19-6.03,6.74v67.78c0,4.55,2.01,6.83,6.03,6.83h3.8c4.02,0,6.03-2.28,6.03-6.83v-67.78c0-4.5-2.01-6.74-6.03-6.74Z"/>
    <path class="cls-17" d="M753.93,774.98c-3.09-2.9-6.68-4.97-10.77-6.21-4.09-1.25-8.94-1.87-14.53-1.87s-10.43.62-14.5,1.87c-4.07,1.25-7.64,3.32-10.73,6.21-3.08,2.9-5.4,6.87-6.92,11.91-1.53,5.04-2.3,11.19-2.3,18.45v37.62c0,4.55,2.01,6.83,6.03,6.83h3.45c4.02,0,6.03-2.28,6.03-6.83v-37.71c0-8.4,1.46-14.18,4.38-17.35,2.92-3.17,7.78-4.75,14.57-4.75s11.78,1.57,14.68,4.71c2.89,3.14,4.34,8.94,4.34,17.39v37.71c0,4.55,2.01,6.83,6.03,6.83h3.44c4.02,0,6.03-2.28,6.03-6.83v-37.62c0-7.26-.77-13.41-2.3-18.45-1.53-5.04-3.84-9.01-6.92-11.91Z"/>
    <path class="cls-17" d="M792.8,733.25h-3.8c-4.02,0-6.03,2.28-6.03,6.83v102.88c0,4.55,2.01,6.83,6.03,6.83h3.8c4.02,0,6.03-2.28,6.03-6.83v-102.88c0-4.55-2.01-6.83-6.03-6.83Z"/>
    <path class="cls-17" d="M848.28,766.89c-6.65,0-13.95,1-21.89,3.01-4.16,1.14-6.24,3.77-6.24,7.88v2.19c0,2.38.6,4.09,1.79,5.12,1.2,1.03,2.85,1.3,4.95.81,7.71-1.79,14.24-2.68,19.6-2.68,12.63,0,18.95,4.93,18.95,14.79v2.19h-22.03c-9.09,0-15.94,1.84-20.56,5.53-4.62,3.68-6.92,10.1-6.92,19.26s2.31,15.51,6.92,19.22c4.62,3.71,11.47,5.57,20.56,5.57h15.36c7.94,0,13.64-1.86,17.08-5.57,3.45-3.71,5.17-9.74,5.17-18.08v-28.12c0-10.35-2.97-18.12-8.9-23.32-5.94-5.2-13.88-7.8-23.83-7.8ZM865.43,825.24c0,3.14-.56,5.46-1.69,6.95-1.12,1.49-3.38,2.23-6.78,2.23h-13.5c-4.83,0-8.09-.69-9.76-2.07-1.67-1.38-2.51-3.83-2.51-7.36s.83-6.04,2.48-7.39c1.65-1.35,4.92-2.03,9.8-2.03h21.96v9.67Z"/>
    <path class="cls-17" d="M933.47,767.63c-4.98.11-9.24.34-12.78.69-3.54.35-6.63.91-9.26,1.67-2.63.76-4.75,1.68-6.35,2.76-1.6,1.08-2.9,2.51-3.88,4.27-.98,1.76-1.64,3.69-1.97,5.77-.33,2.09-.5,4.62-.5,7.6v52.58c0,4.55,2.01,6.83,6.03,6.83h3.73c4.02,0,6.03-2.28,6.03-6.83v-50.55c0-1.57.08-2.75.25-3.53.17-.78.55-1.57,1.15-2.36s1.6-1.33,3.01-1.63c1.41-.3,3.23-.54,5.46-.73,2.22-.19,5.2-.31,8.94-.37,4.4,0,6.6-2.28,6.6-6.83v-2.6c0-2.22-.55-3.91-1.65-5.08-1.1-1.16-2.7-1.72-4.81-1.67Z"/>
    <path class="cls-17" d="M964.19,768.44h-3.8c-4.02-.05-6.03,2.19-6.03,6.74v67.78c0,4.55,2.01,6.83,6.03,6.83h3.8c4.02,0,6.03-2.28,6.03-6.83v-67.78c0-4.5-2.01-6.74-6.03-6.74Z"/>
  </g>
</svg>